<svg id="svg" version="1.1" xmlns="http://www.w3.org/2000/svg" xmlns:xlink="http://www.w3.org/1999/xlink" width="400" height="400" viewBox="0, 0, 400,400"><g id="svgg"><path id="path0" d="M80.600 110.576 C 79.280 110.882,77.536 111.415,76.724 111.761 C 75.912 112.108,73.483 112.675,71.326 113.022 C 68.677 113.448,66.755 114.015,65.402 114.768 C 64.301 115.381,61.870 116.462,60.000 117.169 C 47.440 121.919,32.126 132.614,29.351 138.574 C 26.831 143.985,29.476 144.683,36.077 140.349 C 43.057 135.767,48.585 138.159,41.884 142.863 C 40.738 143.668,38.630 145.349,37.200 146.598 C 35.770 147.847,33.385 149.581,31.899 150.452 C 29.985 151.575,28.712 152.700,27.528 154.318 C 26.610 155.573,25.052 157.500,24.068 158.600 C 20.146 162.982,13.184 176.269,10.199 185.067 C 9.178 188.078,7.907 191.400,7.375 192.450 C 3.692 199.718,3.828 228.546,7.581 236.200 C 8.444 237.960,9.800 241.146,10.595 243.280 C 16.443 258.989,31.934 276.275,45.715 282.471 C 47.742 283.382,50.030 284.543,50.801 285.051 C 51.571 285.559,53.191 286.322,54.401 286.746 C 56.510 287.485,58.058 288.160,65.606 291.633 C 67.480 292.495,69.264 293.200,69.571 293.200 C 69.877 293.200,72.755 293.822,75.964 294.583 C 89.417 297.771,110.480 297.768,123.363 294.578 C 126.423 293.820,129.190 293.200,129.511 293.200 C 129.832 293.200,131.693 292.480,133.648 291.600 C 135.602 290.720,137.437 290.000,137.725 290.000 C 138.012 290.000,139.545 289.361,141.130 288.580 C 142.716 287.799,144.742 286.903,145.633 286.588 C 146.524 286.274,147.774 285.646,148.410 285.193 C 149.047 284.740,151.361 283.573,153.554 282.601 C 157.957 280.649,165.471 275.953,169.800 272.448 C 171.340 271.201,173.629 269.419,174.886 268.488 C 177.759 266.360,186.521 257.444,189.302 253.818 C 190.456 252.313,193.799 248.502,196.731 245.348 C 202.980 238.626,204.073 238.003,206.943 239.527 C 209.499 240.883,226.561 258.501,230.148 263.487 C 233.402 268.011,248.297 279.202,256.327 283.156 C 258.457 284.205,263.616 286.803,267.790 288.930 C 273.165 291.669,276.084 292.921,277.790 293.222 C 279.116 293.456,282.090 294.176,284.400 294.821 C 286.882 295.515,290.482 296.159,293.200 296.395 C 307.687 297.652,308.692 297.693,313.458 297.226 C 316.066 296.970,320.180 296.578,322.600 296.354 C 327.422 295.908,335.601 293.478,339.932 291.206 C 341.179 290.551,344.053 289.205,346.319 288.214 C 348.584 287.224,351.194 285.894,352.119 285.259 C 353.043 284.625,355.096 283.454,356.681 282.657 C 362.237 279.864,368.664 274.137,372.318 268.721 C 373.423 267.084,375.232 264.754,376.338 263.544 C 378.693 260.967,379.170 259.624,378.235 258.197 C 376.792 255.994,374.242 256.976,372.273 260.494 C 370.753 263.208,369.852 264.160,367.430 265.611 C 366.567 266.128,364.837 267.462,363.586 268.576 C 358.743 272.885,346.774 278.055,343.613 277.203 C 339.504 276.097,340.631 272.860,345.414 272.027 C 348.618 271.469,349.477 271.050,352.400 268.621 C 353.610 267.615,355.410 266.506,356.400 266.156 C 360.326 264.770,361.458 264.116,363.604 261.996 C 365.266 260.355,366.573 259.502,368.710 258.663 C 371.721 257.482,372.139 257.103,375.250 252.732 C 376.268 251.302,378.149 249.335,379.430 248.362 C 384.647 244.396,392.673 229.978,393.983 222.216 C 394.241 220.685,395.008 218.165,395.687 216.616 C 397.908 211.550,397.748 194.309,395.413 186.915 C 394.863 185.175,394.217 182.345,393.978 180.627 C 393.556 177.589,391.034 170.574,388.439 165.216 C 386.451 161.111,382.301 155.499,377.603 150.562 C 375.072 147.900,371.801 144.377,370.337 142.733 C 367.310 139.334,362.720 136.043,356.170 132.577 C 353.767 131.305,351.317 129.931,350.728 129.524 C 350.138 129.118,348.464 128.336,347.007 127.788 C 345.550 127.240,343.960 126.530,343.474 126.212 C 342.987 125.893,341.422 125.335,339.995 124.973 C 338.568 124.610,336.320 123.857,335.000 123.300 C 333.680 122.742,331.250 121.973,329.600 121.589 C 327.950 121.206,325.160 120.467,323.400 119.946 C 320.253 119.016,319.917 119.000,303.000 119.000 L 285.800 119.000 281.800 120.077 C 279.600 120.670,276.481 121.428,274.869 121.762 C 273.256 122.097,270.940 122.827,269.720 123.385 C 268.501 123.943,266.337 124.586,264.913 124.814 C 263.488 125.042,261.305 125.738,260.061 126.362 C 258.817 126.985,257.350 127.635,256.800 127.805 C 249.922 129.931,234.538 139.401,228.600 145.164 C 226.400 147.299,223.250 150.138,221.600 151.473 C 218.359 154.095,212.352 160.177,209.819 163.400 C 202.357 172.894,198.787 172.630,190.871 162.000 C 189.642 160.350,186.584 157.020,184.074 154.600 C 181.565 152.180,176.337 147.035,172.456 143.168 C 165.996 136.730,155.113 128.000,153.546 128.000 C 153.344 128.000,151.609 127.002,149.689 125.783 C 145.656 123.221,137.733 119.130,135.400 118.404 C 134.520 118.130,131.518 116.943,128.729 115.767 C 124.192 113.853,123.120 113.564,118.529 113.017 C 115.564 112.664,112.050 111.955,110.200 111.337 C 106.266 110.021,85.325 109.483,80.600 110.576 M84.867 126.050 C 88.250 126.800,89.049 128.987,86.272 129.897 C 85.437 130.171,81.030 130.578,76.477 130.802 L 68.200 131.210 64.200 133.209 C 55.145 137.732,47.633 137.877,49.632 133.490 C 50.144 132.366,51.203 131.781,53.464 131.372 C 54.309 131.219,56.094 130.603,57.431 130.003 C 58.767 129.404,60.837 128.680,62.031 128.396 C 63.224 128.111,65.460 127.440,67.000 126.905 C 71.648 125.289,79.698 124.904,84.867 126.050 M311.600 153.925 C 313.690 154.587,316.418 155.415,317.663 155.765 C 324.075 157.567,334.693 166.278,341.552 175.364 C 351.213 188.161,353.708 207.565,347.460 221.320 C 346.941 222.464,346.288 224.120,346.011 225.000 C 344.757 228.970,339.344 237.475,335.985 240.751 C 333.449 243.225,327.792 246.567,325.079 247.193 C 319.415 248.500,287.835 247.508,281.200 245.814 C 279.110 245.281,275.954 244.664,274.187 244.444 C 272.421 244.224,269.451 243.465,267.587 242.758 C 264.219 241.478,264.161 241.471,257.250 241.520 C 249.299 241.576,248.827 241.458,245.569 238.588 C 240.008 233.690,233.690 225.869,230.392 219.800 C 229.436 218.040,228.067 215.740,227.349 214.688 C 224.938 211.153,224.907 205.475,227.279 201.903 C 228.075 200.704,229.263 198.660,229.920 197.359 C 231.615 194.001,234.369 190.440,239.015 185.600 C 241.232 183.290,245.726 178.449,249.003 174.841 C 258.528 164.354,268.018 157.571,275.940 155.586 C 277.623 155.165,280.080 154.435,281.400 153.966 C 287.137 151.923,305.205 151.899,311.600 153.925 M109.800 158.205 C 112.000 158.524,115.330 158.798,117.200 158.815 C 127.090 158.905,136.938 163.714,150.340 175.000 C 156.063 179.820,161.250 183.615,164.016 185.007 C 165.657 185.833,168.749 187.748,170.886 189.262 C 180.975 196.412,181.507 203.490,172.750 214.043 C 171.909 215.057,170.597 216.989,169.835 218.338 C 169.073 219.686,167.364 222.277,166.038 224.095 C 164.712 225.913,162.448 229.020,161.007 231.000 C 159.566 232.980,155.735 237.451,152.493 240.936 C 146.404 247.483,146.486 247.417,135.400 254.605 C 131.769 256.959,128.229 258.740,126.200 259.233 C 125.100 259.501,123.207 260.214,121.993 260.819 C 112.399 265.596,97.491 265.587,89.000 260.800 C 87.900 260.179,86.195 259.458,85.211 259.196 C 81.952 258.331,76.016 254.686,69.828 249.753 C 61.124 242.813,58.271 239.382,54.206 230.960 C 50.962 224.240,50.999 224.459,51.005 212.000 L 51.009 201.000 52.750 196.000 C 58.166 180.441,71.541 165.490,83.356 161.787 C 84.920 161.297,87.179 160.504,88.376 160.024 C 93.114 158.125,103.286 157.261,109.800 158.205 M267.038 255.257 C 267.457 255.729,268.990 256.881,270.444 257.818 C 278.391 262.942,283.410 267.261,282.780 268.437 C 281.295 271.213,271.308 266.453,268.566 261.663 C 267.980 260.638,266.598 258.869,265.495 257.732 C 264.171 256.366,263.572 255.449,263.732 255.032 C 264.090 254.100,266.133 254.239,267.038 255.257 M293.634 273.400 C 293.638 273.620,293.352 273.860,292.998 273.934 C 292.061 274.128,291.107 273.675,291.412 273.180 C 291.735 272.658,293.621 272.845,293.634 273.400 " stroke="none" fill="#26261e" fill-rule="evenodd"></path><path id="path1" d="M0.000 200.000 L 0.000 400.000 200.000 400.000 L 400.000 400.000 400.000 200.000 L 400.000 0.000 200.000 0.000 L 0.000 0.000 0.000 200.000 M110.200 111.337 C 112.050 111.955,115.564 112.664,118.529 113.017 C 123.120 113.564,124.192 113.853,128.729 115.767 C 131.518 116.943,134.520 118.130,135.400 118.404 C 137.733 119.130,145.656 123.221,149.689 125.783 C 151.609 127.002,153.344 128.000,153.546 128.000 C 155.113 128.000,165.996 136.730,172.456 143.168 C 176.337 147.035,181.565 152.180,184.074 154.600 C 186.584 157.020,189.642 160.350,190.871 162.000 C 198.787 172.630,202.357 172.894,209.819 163.400 C 212.352 160.177,218.359 154.095,221.600 151.473 C 223.250 150.138,226.400 147.299,228.600 145.164 C 234.538 139.401,249.922 129.931,256.800 127.805 C 257.350 127.635,258.817 126.985,260.061 126.362 C 261.305 125.738,263.488 125.042,264.913 124.814 C 266.337 124.586,268.501 123.943,269.720 123.385 C 270.940 122.827,273.256 122.097,274.869 121.762 C 276.481 121.428,279.600 120.670,281.800 120.077 L 285.800 119.000 303.000 119.000 C 319.917 119.000,320.253 119.016,323.400 119.946 C 325.160 120.467,327.950 121.206,329.600 121.589 C 331.250 121.973,333.680 122.742,335.000 123.300 C 336.320 123.857,338.568 124.610,339.995 124.973 C 341.422 125.335,342.987 125.893,343.474 126.212 C 343.960 126.530,345.550 127.240,347.007 127.788 C 348.464 128.336,350.138 129.118,350.728 129.524 C 351.317 129.931,353.767 131.305,356.170 132.577 C 362.720 136.043,367.310 139.334,370.337 142.733 C 371.801 144.377,375.072 147.900,377.603 150.562 C 382.301 155.499,386.451 161.111,388.439 165.216 C 391.034 170.574,393.556 177.589,393.978 180.627 C 394.217 182.345,394.863 185.175,395.413 186.915 C 397.748 194.309,397.908 211.550,395.687 216.616 C 395.008 218.165,394.241 220.685,393.983 222.216 C 392.673 229.978,384.647 244.396,379.430 248.362 C 378.149 249.335,376.268 251.302,375.250 252.732 C 372.139 257.103,371.721 257.482,368.710 258.663 C 366.573 259.502,365.266 260.355,363.604 261.996 C 361.458 264.116,360.326 264.770,356.400 266.156 C 355.410 266.506,353.610 267.615,352.400 268.621 C 349.477 271.050,348.618 271.469,345.414 272.027 C 340.631 272.860,339.504 276.097,343.613 277.203 C 346.774 278.055,358.743 272.885,363.586 268.576 C 364.837 267.462,366.567 266.128,367.430 265.611 C 369.852 264.160,370.753 263.208,372.273 260.494 C 374.242 256.976,376.792 255.994,378.235 258.197 C 379.170 259.624,378.693 260.967,376.338 263.544 C 375.232 264.754,373.423 267.084,372.318 268.721 C 368.664 274.137,362.237 279.864,356.681 282.657 C 355.096 283.454,353.043 284.625,352.119 285.259 C 351.194 285.894,348.584 287.224,346.319 288.214 C 344.053 289.205,341.179 290.551,339.932 291.206 C 335.601 293.478,327.422 295.908,322.600 296.354 C 320.180 296.578,316.066 296.970,313.458 297.226 C 308.692 297.693,307.687 297.652,293.200 296.395 C 290.482 296.159,286.882 295.515,284.400 294.821 C 282.090 294.176,279.116 293.456,277.790 293.222 C 276.084 292.921,273.165 291.669,267.790 288.930 C 263.616 286.803,258.457 284.205,256.327 283.156 C 248.297 279.202,233.402 268.011,230.148 263.487 C 226.561 258.501,209.499 240.883,206.943 239.527 C 204.073 238.003,202.980 238.626,196.731 245.348 C 193.799 248.502,190.456 252.313,189.302 253.818 C 186.521 257.444,177.759 266.360,174.886 268.488 C 173.629 269.419,171.340 271.201,169.800 272.448 C 165.471 275.953,157.957 280.649,153.554 282.601 C 151.361 283.573,149.047 284.740,148.410 285.193 C 147.774 285.646,146.524 286.274,145.633 286.588 C 144.742 286.903,142.716 287.799,141.130 288.580 C 139.545 289.361,138.012 290.000,137.725 290.000 C 137.437 290.000,135.602 290.720,133.648 291.600 C 131.693 292.480,129.832 293.200,129.511 293.200 C 129.190 293.200,126.423 293.820,123.363 294.578 C 110.480 297.768,89.417 297.771,75.964 294.583 C 72.755 293.822,69.877 293.200,69.571 293.200 C 69.264 293.200,67.480 292.495,65.606 291.633 C 58.058 288.160,56.510 287.485,54.401 286.746 C 53.191 286.322,51.571 285.559,50.801 285.051 C 50.030 284.543,47.742 283.382,45.715 282.471 C 31.934 276.275,16.443 258.989,10.595 243.280 C 9.800 241.146,8.444 237.960,7.581 236.200 C 3.828 228.546,3.692 199.718,7.375 192.450 C 7.907 191.400,9.178 188.078,10.199 185.067 C 13.184 176.269,20.146 162.982,24.068 158.600 C 25.052 157.500,26.610 155.573,27.528 154.318 C 28.712 152.700,29.985 151.575,31.899 150.452 C 33.385 149.581,35.770 147.847,37.200 146.598 C 38.630 145.349,40.738 143.668,41.884 142.863 C 48.585 138.159,43.057 135.767,36.077 140.349 C 29.476 144.683,26.831 143.985,29.351 138.574 C 32.126 132.614,47.440 121.919,60.000 117.169 C 61.870 116.462,64.301 115.381,65.402 114.768 C 66.755 114.015,68.677 113.448,71.326 113.022 C 73.483 112.675,75.912 112.108,76.724 111.761 C 81.874 109.565,104.059 109.283,110.200 111.337 M72.800 125.605 C 71.150 125.784,68.540 126.370,67.000 126.905 C 65.460 127.440,63.224 128.111,62.031 128.396 C 60.837 128.680,58.767 129.404,57.431 130.003 C 56.094 130.603,54.309 131.219,53.464 131.372 C 51.203 131.781,50.144 132.366,49.632 133.490 C 47.633 137.877,55.145 137.732,64.200 133.209 L 68.200 131.210 76.477 130.802 C 87.107 130.278,89.478 129.497,87.402 127.202 C 86.111 125.775,78.686 124.963,72.800 125.605 M286.600 152.781 C 285.060 152.963,282.720 153.496,281.400 153.966 C 280.080 154.435,277.623 155.165,275.940 155.586 C 268.018 157.571,258.528 164.354,249.003 174.841 C 245.726 178.449,241.232 183.290,239.015 185.600 C 234.369 190.440,231.615 194.001,229.920 197.359 C 229.263 198.660,228.075 200.704,227.279 201.903 C 224.907 205.475,224.938 211.153,227.349 214.688 C 228.067 215.740,229.436 218.040,230.392 219.800 C 233.690 225.869,240.008 233.690,245.569 238.588 C 248.827 241.458,249.299 241.576,257.250 241.520 C 264.161 241.471,264.219 241.478,267.587 242.758 C 269.451 243.465,272.421 244.224,274.187 244.444 C 275.954 244.664,279.110 245.281,281.200 245.814 C 287.835 247.508,319.415 248.500,325.079 247.193 C 327.792 246.567,333.449 243.225,335.985 240.751 C 339.344 237.475,344.757 228.970,346.011 225.000 C 346.288 224.120,346.941 222.464,347.460 221.320 C 353.708 207.565,351.213 188.161,341.552 175.364 C 334.693 166.278,324.075 157.567,317.663 155.765 C 316.418 155.415,313.690 154.587,311.600 153.925 C 307.476 152.618,293.437 151.976,286.600 152.781 M95.776 158.420 C 92.902 158.822,89.572 159.544,88.376 160.024 C 87.179 160.504,84.920 161.297,83.356 161.787 C 71.541 165.490,58.166 180.441,52.750 196.000 L 51.009 201.000 51.005 212.000 C 50.999 224.459,50.962 224.240,54.206 230.960 C 58.271 239.382,61.124 242.813,69.828 249.753 C 76.016 254.686,81.952 258.331,85.211 259.196 C 86.195 259.458,87.900 260.179,89.000 260.800 C 97.491 265.587,112.399 265.596,121.993 260.819 C 123.207 260.214,125.100 259.501,126.200 259.233 C 128.229 258.740,131.769 256.959,135.400 254.605 C 146.486 247.417,146.404 247.483,152.493 240.936 C 155.735 237.451,159.566 232.980,161.007 231.000 C 162.448 229.020,164.712 225.913,166.038 224.095 C 167.364 222.277,169.073 219.686,169.835 218.338 C 170.597 216.989,171.909 215.057,172.750 214.043 C 178.523 207.086,180.209 201.596,177.956 197.089 C 175.654 192.483,171.196 188.620,164.016 185.007 C 161.250 183.615,156.063 179.820,150.340 175.000 C 136.938 163.714,127.090 158.905,117.200 158.815 C 115.330 158.798,112.000 158.524,109.800 158.205 C 104.738 157.471,102.274 157.509,95.776 158.420 M263.732 255.032 C 263.572 255.449,264.171 256.366,265.495 257.732 C 266.598 258.869,267.980 260.638,268.566 261.663 C 271.308 266.453,281.295 271.213,282.780 268.437 C 283.410 267.261,278.391 262.942,270.444 257.818 C 268.990 256.881,267.457 255.729,267.038 255.257 C 266.133 254.239,264.090 254.100,263.732 255.032 M291.412 273.180 C 291.107 273.675,292.061 274.128,292.998 273.934 C 293.352 273.860,293.638 273.620,293.634 273.400 C 293.621 272.845,291.735 272.658,291.412 273.180 " stroke="none" fill="#fbfbfb" fill-rule="evenodd"></path></g></svg>